Coordinates
version=1
nRows=9
nColumns=24
inDegrees=yes

Units are S.I. units (second, meters, Newtons, ...)
Angles are in degrees.

endheader
time	pelvis_tilt	pelvis_list	pelvis_rotation	pelvis_tx	pelvis_ty	pelvis_tz	hip_flexion_r	hip_adduction_r	hip_rotation_r	knee_angle_r	ankle_angle_r	subtalar_angle_r	mtp_angle_r	hip_flexion_l	hip_adduction_l	hip_rotation_l	knee_angle_l	ankle_angle_l	subtalar_angle_l	mtp_angle_l	lumbar_extension	lumbar_bending	lumbar_rotation
      0.85800000	      2.66077956	     -4.99161041	     -4.37184873	     -0.39362881	      1.01547087	      0.31128836	      9.20618499	      8.64016461	      0.90693639	    -18.17070208	     -2.11544917	    -17.08021666	     -3.35938939	     11.92075924	    -10.95656955	     -8.78159943	    -70.37723930	      2.68746257	    -15.11547076	    -13.09193441	    -15.22387542	      6.52484380	      5.43793212
      0.86216667	      2.72253747	     -4.89513469	     -4.42574143	     -0.38855726	      1.01648243	      0.31154993	      8.68255607	      8.52452646	      0.98524630	    -17.90592534	     -2.00729938	    -16.99679206	     -3.37462533	     12.44137611	    -10.86793402	     -8.75749276	    -70.12718382	      2.94153841	    -15.06171144	    -13.14878732	    -15.29158397	      6.36670598	      5.61796638
      0.86633333	      2.80542797	     -4.80377184	     -4.48775427	     -0.38343251	      1.01755070	      0.31182728	      8.11755235	      8.40948292	      1.05991914	    -17.61205944	     -1.87334455	    -16.87125823	     -3.40239072	     12.90753636	    -10.78971536	     -8.76454222	    -69.78986848	      3.13365938	    -14.99872106	    -13.25628554	    -15.37738386	      6.20652306	      5.84083031
      0.87050000	      2.88800485	     -4.70506980	     -4.55272804	     -0.37832780	      1.01860044	      0.31208100	      7.55564267	      8.28228437	      1.12944017	    -17.31690381	     -1.77509340	    -16.76916479	     -3.42896362	     13.35681759	    -10.69903300	     -8.78311753	    -69.38943142	      3.35110657	    -14.91317732	    -13.35896774	    -15.46641707	      6.03835021	      5.99417659
      0.87466667	      2.91803752	     -4.60477615	     -4.61608845	     -0.37323709	      1.01953605	      0.31230764	      7.05483446	      8.15277939	      1.18303323	    -17.02212440	     -1.72786166	    -16.68036396	     -3.44082420	     13.85704018	    -10.60750564	     -8.80288764	    -68.94655538	      3.57849419	    -14.83540499	    -13.40353560	    -15.49574679	      5.88919519	      6.09877543
      0.87883333	      3.05291384	     -4.51024926	     -4.68562149	     -0.36811362	      1.02064574	      0.31255475	      6.42514018	      8.01694617	      1.22980516	    -16.70842432	     -1.57171059	    -16.49688753	     -3.46354870	     14.20353979	    -10.52376264	     -8.86694871	    -68.41057428	      3.75498978	    -14.72394251	    -13.50366269	    -15.64433323	      5.71396320	      6.31600559
      0.88300000	      3.06865304	     -4.41528498	     -4.75122003	     -0.36299429	      1.02152689	      0.31276273	      5.92954027	      7.88732897	      1.26702593	    -16.38959386	     -1.56154949	    -16.40256097	     -3.47234638	     14.68056457	    -10.44158375	     -8.91473187	    -67.84642096	      3.93989034	    -14.61183137	    -13.53919611	    -15.65091781	      5.57415399	      6.40045054
      0.88716667	      3.24544258	     -4.31291502	     -4.84530900	     -0.35786458	      1.02267383	      0.31301592	      5.25026705	      7.73299426	      1.32322647	    -16.06655961	     -1.39724537	    -16.19459092	     -3.49087941	     14.92628309	    -10.35143606	     -9.03860311	    -67.17294660	      4.10663698	    -14.48398151	    -13.63756381	    -15.84899716	      5.39024869	      6.63268066
      0.89133333	      3.24586038	     -4.22857379	     -4.91606214	     -0.35271506	      1.02347770	      0.31324175	      4.76800797	      7.61200673	      1.33795162	    -15.74129715	     -1.40186984	    -16.09293896	     -3.49703635	     15.37968332	    -10.29228728	     -9.12445589	    -66.49800101	      4.25880421	    -14.36462480	    -13.66660819	    -15.82498805	      5.24907839	      6.70774727
